<svg xmlns="http://www.w3.org/2000/svg" version="1.1" xmlns:xlink="http://www.w3.org/1999/xlink" xmlns:svgjs="http://svgjs.dev/svgjs" width="1500" height="1500" viewBox="0 0 1500 1500"><rect width="1500" height="1500" fill="#34495e"></rect><g transform="matrix(0.6666666666666666,0,0,0.6666666666666666,249.39393939393932,593.4840793832958)"><svg viewBox="0 0 396 124" data-background-color="#34495e" preserveAspectRatio="xMidYMid meet" height="469" width="1500" xmlns="http://www.w3.org/2000/svg" xmlns:xlink="http://www.w3.org/1999/xlink"><g id="tight-bounds" transform="matrix(1,0,0,1,0.24000000000003752,0.07241201430059618)"><svg viewBox="0 0 395.5199999999999 123.8551759713988" height="123.8551759713988" width="395.5199999999999"><g><svg viewBox="0 0 395.5199999999999 123.8551759713988" height="123.8551759713988" width="395.5199999999999"><g transform="matrix(1,0,0,1,0,63.737437771210054)"><svg viewBox="0 0 395.5199999999999 60.11773820018874" height="60.11773820018874" width="395.5199999999999"><g id="textblocktransform"><svg viewBox="0 0 395.5199999999999 60.11773820018874" height="60.11773820018874" width="395.5199999999999" id="textblock"><g><svg viewBox="0 0 395.5199999999999 60.11773820018874" height="60.11773820018874" width="395.5199999999999"><g transform="matrix(1,0,0,1,0,0)"><svg width="395.5199999999999" viewBox="2.035030000000001 -20.9407 315.5681114774158 47.9653" height="60.11773820018874" data-palette-color="url(#f728a8e6-819c-4322-8655-a0379c2a416d)"></svg></g></svg></g></svg></g></svg></g><g transform="matrix(1,0,0,1,180.320250906129,0)"><svg viewBox="0 0 34.879498187741945 60.11773820018874" height="60.11773820018874" width="34.879498187741945"><g><svg xmlns="http://www.w3.org/2000/svg" xmlns:xlink="http://www.w3.org/1999/xlink" version="1.1" x="0" y="0" viewBox="21.679106830508616 1 56.85827385947762 98" enable-background="new 0 0 100 100" xml:space="preserve" height="60.11773820018874" width="34.879498187741945" class="icon-icon-0" data-fill-palette-color="accent" id="icon-0"></svg></g></svg></g><g></g></svg></g><defs></defs><mask id="8352ae9b-ade9-48ec-9d4f-49624cec11fa"><g id="SvgjsG5448"><svg viewBox="0 0 395.5199999999999 123.8551759713988" height="123.8551759713988" width="395.5199999999999"><g><svg viewBox="0 0 395.5199999999999 123.8551759713988" height="123.8551759713988" width="395.5199999999999"><g transform="matrix(1,0,0,1,0,63.737437771210054)"><svg viewBox="0 0 395.5199999999999 60.11773820018874" height="60.11773820018874" width="395.5199999999999"><g id="SvgjsG5447"><svg viewBox="0 0 395.5199999999999 60.11773820018874" height="60.11773820018874" width="395.5199999999999" id="SvgjsSvg5446"><g><svg viewBox="0 0 395.5199999999999 60.11773820018874" height="60.11773820018874" width="395.5199999999999"><g transform="matrix(1,0,0,1,0,0)"><svg width="395.5199999999999" viewBox="2.035030000000001 -20.9407 315.5681114774158 47.9653" height="60.11773820018874" data-palette-color="url(#f728a8e6-819c-4322-8655-a0379c2a416d)"><path d="M26.962 17.321l-16.311-29.56-4.294 26.181-4.322-0.709 5.605-34.174 3.651 0.599 16.51 30.14 4.373-26.664 4.332 0.711-5.597 34.124zM43.823 19.668l-4.34-0.589 4.656-34.315 4.341 0.589zM56.763 21.13l-4.355-0.472 3.728-34.379 4.354 0.472-2.061 19.009 19.813-17.134 4.702 0.51-15.455 13.683 12.507 20.83-4.901-0.531-10.653-17.984-6.539 5.477zM96.534 24.989v0c-2.434-0.176-4.603-0.822-6.507-1.936-1.911-1.114-3.528-2.559-4.849-4.332-1.321-1.78-2.295-3.742-2.922-5.886-0.626-2.151-0.859-4.327-0.7-6.528v0c0.167-2.307 0.742-4.475 1.725-6.502 0.976-2.035 2.262-3.816 3.857-5.346 1.595-1.529 3.414-2.7 5.458-3.514 2.051-0.814 4.243-1.136 6.577-0.967v0c2.434 0.176 4.601 0.838 6.504 1.986 1.909 1.148 3.513 2.618 4.813 4.41 1.307 1.793 2.274 3.754 2.902 5.885 0.628 2.131 0.862 4.284 0.705 6.458v0c-0.167 2.301-0.732 4.465-1.694 6.494-0.963 2.036-2.242 3.818-3.837 5.347-1.595 1.535-3.414 2.7-5.457 3.494-2.049 0.794-4.241 1.106-6.575 0.937zM85.984 6.628v0c-0.127 1.749 0.033 3.461 0.48 5.138 0.453 1.684 1.152 3.195 2.098 4.534 0.946 1.339 2.12 2.433 3.521 3.283 1.409 0.851 3.004 1.341 4.787 1.47v0c1.848 0.134 3.529-0.135 5.041-0.807 1.519-0.672 2.838-1.619 3.956-2.842 1.111-1.223 1.995-2.626 2.651-4.209 0.65-1.584 1.034-3.2 1.154-4.849v0c0.127-1.755-0.033-3.465-0.48-5.128-0.455-1.657-1.161-3.166-2.118-4.525-0.964-1.36-2.141-2.455-3.532-3.285-1.39-0.836-2.959-1.317-4.708-1.444v0c-1.848-0.134-3.529 0.128-5.04 0.788-1.518 0.652-2.836 1.589-3.954 2.811-1.111 1.223-2.001 2.619-2.67 4.188-0.668 1.562-1.063 3.188-1.186 4.877zM142.875-3.94l-2.175 3.485c-0.37-0.467-0.874-0.925-1.512-1.374-0.631-0.443-1.347-0.848-2.149-1.217-0.801-0.369-1.677-0.677-2.629-0.924-0.952-0.247-1.947-0.389-2.986-0.426v0c-2.665-0.095-4.648 0.339-5.95 1.3-1.302 0.968-1.984 2.328-2.046 4.08v0c-0.044 1.233 0.245 2.217 0.866 2.953 0.627 0.743 1.606 1.364 2.936 1.865 1.336 0.501 3.035 1.032 5.096 1.591v0c2.386 0.612 4.443 1.322 6.169 2.13 1.726 0.808 3.039 1.856 3.941 3.142 0.895 1.279 1.306 2.961 1.232 5.047v0c-0.059 1.652-0.426 3.077-1.102 4.273-0.676 1.197-1.598 2.171-2.766 2.924-1.161 0.759-2.514 1.298-4.059 1.617-1.539 0.319-3.201 0.447-4.987 0.384v0c-1.752-0.062-3.461-0.31-5.127-0.742-1.659-0.432-3.222-1.031-4.689-1.797-1.467-0.772-2.834-1.718-4.102-2.838v0l2.229-3.623c0.5 0.571 1.157 1.138 1.971 1.701 0.807 0.569 1.729 1.099 2.766 1.589 1.043 0.491 2.176 0.898 3.399 1.221 1.23 0.317 2.494 0.499 3.793 0.545v0c2.465 0.087 4.396-0.291 5.794-1.135 1.397-0.844 2.127-2.129 2.188-3.855v0c0.046-1.299-0.3-2.352-1.039-3.159-0.732-0.806-1.838-1.496-3.319-2.069-1.474-0.573-3.274-1.157-5.401-1.753v0c-2.318-0.669-4.26-1.382-5.828-2.137-1.568-0.749-2.728-1.708-3.48-2.875-0.759-1.168-1.106-2.661-1.042-4.48v0c0.078-2.205 0.681-4.055 1.807-5.55 1.127-1.488 2.647-2.588 4.56-3.3 1.913-0.713 4.056-1.027 6.428-0.943v0c1.559 0.055 3.006 0.27 4.34 0.644 1.341 0.374 2.584 0.872 3.729 1.493 1.152 0.628 2.2 1.365 3.144 2.213zM185.169-7.77l0.04 3.91-11.95 0.121 0.314 30.719-4.39 0.045-0.313-30.719-11.95 0.122-0.04-3.91zM211.951-5.203l-1.897 3.643c-0.406-0.437-0.944-0.854-1.615-1.253-0.664-0.392-1.409-0.741-2.236-1.046-0.827-0.305-1.725-0.544-2.693-0.717-0.968-0.173-1.972-0.237-3.011-0.192v0c-2.664 0.113-4.608 0.699-5.83 1.758-1.223 1.066-1.797 2.475-1.723 4.227v0c0.052 1.232 0.416 2.191 1.093 2.876 0.683 0.692 1.707 1.236 3.071 1.631 1.371 0.396 3.106 0.793 5.206 1.191v0c2.427 0.424 4.532 0.972 6.315 1.644 1.783 0.672 3.174 1.614 4.173 2.826 0.992 1.206 1.532 2.851 1.62 4.936v0c0.07 1.652-0.186 3.101-0.766 4.347-0.581 1.246-1.424 2.289-2.53 3.129-1.098 0.847-2.406 1.49-3.922 1.928-1.51 0.438-3.157 0.694-4.942 0.77v0c-1.752 0.074-3.475-0.04-5.169-0.342-1.688-0.302-3.293-0.778-4.815-1.427-1.522-0.656-2.959-1.493-4.31-2.51v0l1.942-3.786c0.543 0.531 1.242 1.045 2.097 1.543 0.849 0.505 1.809 0.961 2.88 1.369 1.078 0.408 2.239 0.726 3.484 0.954 1.25 0.221 2.525 0.303 3.824 0.248v0c2.464-0.104 4.361-0.632 5.688-1.582 1.328-0.95 1.955-2.288 1.882-4.013v0c-0.055-1.299-0.482-2.322-1.281-3.069-0.792-0.747-1.949-1.349-3.47-1.805-1.514-0.456-3.354-0.899-5.521-1.327v0c-2.363-0.487-4.355-1.047-5.976-1.679-1.621-0.625-2.852-1.491-3.693-2.596-0.848-1.105-1.31-2.567-1.387-4.385v0c-0.093-2.205 0.364-4.096 1.371-5.673 1.008-1.571 2.438-2.786 4.29-3.645 1.852-0.859 3.964-1.339 6.334-1.439v0c1.559-0.066 3.018 0.036 4.377 0.305 1.366 0.269 2.644 0.669 3.834 1.199 1.197 0.536 2.299 1.19 3.306 1.962zM225.197 24.956l-4.371 0.275-2.173-34.562 4.371-0.274zM257.392 22.183l-23.61 2.069-3.024-34.498 4.364-0.382 2.683 30.613 19.246-1.687zM258.955 21.944l9.818-36.113 3.682-0.457 18.296 32.625-4.644 0.577-5.318-9.558-14.419 1.789-2.771 10.561zM266.822 7.304l12.583-1.561-8.171-15.099zM312.553-16.742l-1.47 3.836c-0.453-0.388-1.035-0.741-1.747-1.061-0.704-0.314-1.484-0.576-2.34-0.785-0.856-0.209-1.775-0.344-2.757-0.406-0.982-0.061-1.986-0.011-3.013 0.152v0c-2.634 0.415-4.498 1.219-5.593 2.41-1.093 1.198-1.504 2.663-1.231 4.395v0c0.192 1.218 0.663 2.129 1.413 2.733 0.757 0.609 1.837 1.033 3.237 1.272 1.407 0.237 3.176 0.434 5.307 0.591v0c2.459 0.145 4.613 0.45 6.461 0.915 1.848 0.465 3.337 1.242 4.468 2.332 1.123 1.085 1.846 2.658 2.172 4.72v0c0.257 1.633 0.168 3.102-0.268 4.405-0.436 1.304-1.155 2.436-2.157 3.398-0.995 0.967-2.221 1.754-3.677 2.361-1.45 0.607-3.057 1.049-4.822 1.327v0c-1.732 0.273-3.457 0.356-5.174 0.249-1.711-0.108-3.36-0.398-4.946-0.871-1.587-0.479-3.11-1.146-4.568-2.003v0l1.498-3.982c0.6 0.466 1.353 0.897 2.259 1.294 0.901 0.405 1.907 0.749 3.018 1.033 1.118 0.283 2.307 0.466 3.569 0.551 1.267 0.077 2.543 0.014 3.828-0.188v0c2.437-0.384 4.26-1.124 5.471-2.219 1.211-1.095 1.682-2.496 1.413-4.202v0c-0.202-1.284-0.743-2.252-1.622-2.902-0.872-0.652-2.09-1.118-3.652-1.399-1.556-0.281-3.435-0.511-5.637-0.691v0c-2.403-0.215-4.446-0.544-6.128-0.987-1.682-0.437-3.003-1.156-3.965-2.159-0.968-1.002-1.593-2.401-1.877-4.199v0c-0.344-2.18-0.105-4.111 0.717-5.792 0.823-1.675 2.105-3.045 3.847-4.11 1.742-1.064 3.785-1.781 6.13-2.15v0c1.541-0.243 3.002-0.308 4.383-0.195 1.388 0.112 2.703 0.364 3.946 0.754 1.25 0.397 2.42 0.921 3.508 1.573z" opacity="1" transform="matrix(1,0,0,1,0,0)" fill="white" class="wordmark-text-0" id="SvgjsPath5445"></path></svg></g></svg></g></svg></g></svg></g><g transform="matrix(1,0,0,1,180.320250906129,0)"><svg viewBox="0 0 34.879498187741945 60.11773820018874" height="60.11773820018874" width="34.879498187741945"><g><svg xmlns="http://www.w3.org/2000/svg" xmlns:xlink="http://www.w3.org/1999/xlink" version="1.1" x="0" y="0" viewBox="21.679106830508616 1 56.85827385947762 98" enable-background="new 0 0 100 100" xml:space="preserve" height="60.11773820018874" width="34.879498187741945" class="icon-icon-0" data-fill-palette-color="accent" id="SvgjsSvg5444"><g fill="black"><path fill-rule="evenodd" clip-rule="evenodd" d="M30.545 28.822C29.38 36.039 30.875 43.672 37.045 47.863 30.758 19.81 45.756 8.664 59.646 1 43.466 24.046 76.542 24.644 78.423 51.13 80.028 73.71 64.507 91.317 46.639 99 46.845 76.175 24.089 73.067 21.801 54.397 20.905 47.094 25.062 33.766 30.545 28.822" fill="black"></path></g></svg></g></svg></g><g></g></svg></g><defs><mask></mask></defs></svg><rect width="395.5199999999999" height="123.8551759713988" fill="black" stroke="none" visibility="hidden"></rect></g></mask><linearGradient x1="0" x2="1" y1="0.578" y2="0.595" id="f728a8e6-819c-4322-8655-a0379c2a416d"><stop stop-color="#6ee2f5" offset="0"></stop><stop stop-color="#6454f0" offset="1"></stop></linearGradient><rect width="395.5199999999999" height="123.8551759713988" fill="url(#f728a8e6-819c-4322-8655-a0379c2a416d)" mask="url(#8352ae9b-ade9-48ec-9d4f-49624cec11fa)" data-fill-palette-color="primary"></rect><mask id="573f948c-3fbb-4bae-87bd-ac6e3d035de0"><g id="SvgjsG5457"><svg viewBox="0 0 395.5199999999999 123.8551759713988" height="123.8551759713988" width="395.5199999999999"><g><svg viewBox="0 0 395.5199999999999 123.8551759713988" height="123.8551759713988" width="395.5199999999999"><g transform="matrix(1,0,0,1,0,63.737437771210054)"><svg viewBox="0 0 395.5199999999999 60.11773820018874" height="60.11773820018874" width="395.5199999999999"><g id="SvgjsG5456"><svg viewBox="0 0 395.5199999999999 60.11773820018874" height="60.11773820018874" width="395.5199999999999" id="SvgjsSvg5455"><g><svg viewBox="0 0 395.5199999999999 60.11773820018874" height="60.11773820018874" width="395.5199999999999"><g transform="matrix(1,0,0,1,0,0)"><svg width="395.5199999999999" viewBox="2.035030000000001 -20.9407 315.5681114774158 47.9653" height="60.11773820018874" data-palette-color="url(#f728a8e6-819c-4322-8655-a0379c2a416d)"></svg></g></svg></g></svg></g></svg></g><g transform="matrix(1,0,0,1,180.320250906129,0)"><svg viewBox="0 0 34.879498187741945 60.11773820018874" height="60.11773820018874" width="34.879498187741945"><g><svg xmlns="http://www.w3.org/2000/svg" xmlns:xlink="http://www.w3.org/1999/xlink" version="1.1" x="0" y="0" viewBox="21.679106830508616 1 56.85827385947762 98" enable-background="new 0 0 100 100" xml:space="preserve" height="60.11773820018874" width="34.879498187741945" class="icon-icon-0" data-fill-palette-color="accent" id="SvgjsSvg5454"><g fill="white"><path fill-rule="evenodd" clip-rule="evenodd" d="M30.545 28.822C29.38 36.039 30.875 43.672 37.045 47.863 30.758 19.81 45.756 8.664 59.646 1 43.466 24.046 76.542 24.644 78.423 51.13 80.028 73.71 64.507 91.317 46.639 99 46.845 76.175 24.089 73.067 21.801 54.397 20.905 47.094 25.062 33.766 30.545 28.822" fill="white"></path></g></svg></g></svg></g><g></g></svg></g><defs><mask></mask></defs><mask><g id="SvgjsG5453"><svg viewBox="0 0 395.5199999999999 123.8551759713988" height="123.8551759713988" width="395.5199999999999"><g><svg viewBox="0 0 395.5199999999999 123.8551759713988" height="123.8551759713988" width="395.5199999999999"><g transform="matrix(1,0,0,1,0,63.737437771210054)"><svg viewBox="0 0 395.5199999999999 60.11773820018874" height="60.11773820018874" width="395.5199999999999"><g id="SvgjsG5452"><svg viewBox="0 0 395.5199999999999 60.11773820018874" height="60.11773820018874" width="395.5199999999999" id="SvgjsSvg5451"><g><svg viewBox="0 0 395.5199999999999 60.11773820018874" height="60.11773820018874" width="395.5199999999999"><g transform="matrix(1,0,0,1,0,0)"><svg width="395.5199999999999" viewBox="2.035030000000001 -20.9407 315.5681114774158 47.9653" height="60.11773820018874" data-palette-color="url(#f728a8e6-819c-4322-8655-a0379c2a416d)"><path d="M26.962 17.321l-16.311-29.56-4.294 26.181-4.322-0.709 5.605-34.174 3.651 0.599 16.51 30.14 4.373-26.664 4.332 0.711-5.597 34.124zM43.823 19.668l-4.34-0.589 4.656-34.315 4.341 0.589zM56.763 21.13l-4.355-0.472 3.728-34.379 4.354 0.472-2.061 19.009 19.813-17.134 4.702 0.51-15.455 13.683 12.507 20.83-4.901-0.531-10.653-17.984-6.539 5.477zM96.534 24.989v0c-2.434-0.176-4.603-0.822-6.507-1.936-1.911-1.114-3.528-2.559-4.849-4.332-1.321-1.78-2.295-3.742-2.922-5.886-0.626-2.151-0.859-4.327-0.7-6.528v0c0.167-2.307 0.742-4.475 1.725-6.502 0.976-2.035 2.262-3.816 3.857-5.346 1.595-1.529 3.414-2.7 5.458-3.514 2.051-0.814 4.243-1.136 6.577-0.967v0c2.434 0.176 4.601 0.838 6.504 1.986 1.909 1.148 3.513 2.618 4.813 4.41 1.307 1.793 2.274 3.754 2.902 5.885 0.628 2.131 0.862 4.284 0.705 6.458v0c-0.167 2.301-0.732 4.465-1.694 6.494-0.963 2.036-2.242 3.818-3.837 5.347-1.595 1.535-3.414 2.7-5.457 3.494-2.049 0.794-4.241 1.106-6.575 0.937zM85.984 6.628v0c-0.127 1.749 0.033 3.461 0.48 5.138 0.453 1.684 1.152 3.195 2.098 4.534 0.946 1.339 2.12 2.433 3.521 3.283 1.409 0.851 3.004 1.341 4.787 1.47v0c1.848 0.134 3.529-0.135 5.041-0.807 1.519-0.672 2.838-1.619 3.956-2.842 1.111-1.223 1.995-2.626 2.651-4.209 0.65-1.584 1.034-3.2 1.154-4.849v0c0.127-1.755-0.033-3.465-0.48-5.128-0.455-1.657-1.161-3.166-2.118-4.525-0.964-1.36-2.141-2.455-3.532-3.285-1.39-0.836-2.959-1.317-4.708-1.444v0c-1.848-0.134-3.529 0.128-5.04 0.788-1.518 0.652-2.836 1.589-3.954 2.811-1.111 1.223-2.001 2.619-2.67 4.188-0.668 1.562-1.063 3.188-1.186 4.877zM142.875-3.94l-2.175 3.485c-0.37-0.467-0.874-0.925-1.512-1.374-0.631-0.443-1.347-0.848-2.149-1.217-0.801-0.369-1.677-0.677-2.629-0.924-0.952-0.247-1.947-0.389-2.986-0.426v0c-2.665-0.095-4.648 0.339-5.95 1.3-1.302 0.968-1.984 2.328-2.046 4.08v0c-0.044 1.233 0.245 2.217 0.866 2.953 0.627 0.743 1.606 1.364 2.936 1.865 1.336 0.501 3.035 1.032 5.096 1.591v0c2.386 0.612 4.443 1.322 6.169 2.13 1.726 0.808 3.039 1.856 3.941 3.142 0.895 1.279 1.306 2.961 1.232 5.047v0c-0.059 1.652-0.426 3.077-1.102 4.273-0.676 1.197-1.598 2.171-2.766 2.924-1.161 0.759-2.514 1.298-4.059 1.617-1.539 0.319-3.201 0.447-4.987 0.384v0c-1.752-0.062-3.461-0.31-5.127-0.742-1.659-0.432-3.222-1.031-4.689-1.797-1.467-0.772-2.834-1.718-4.102-2.838v0l2.229-3.623c0.5 0.571 1.157 1.138 1.971 1.701 0.807 0.569 1.729 1.099 2.766 1.589 1.043 0.491 2.176 0.898 3.399 1.221 1.23 0.317 2.494 0.499 3.793 0.545v0c2.465 0.087 4.396-0.291 5.794-1.135 1.397-0.844 2.127-2.129 2.188-3.855v0c0.046-1.299-0.3-2.352-1.039-3.159-0.732-0.806-1.838-1.496-3.319-2.069-1.474-0.573-3.274-1.157-5.401-1.753v0c-2.318-0.669-4.26-1.382-5.828-2.137-1.568-0.749-2.728-1.708-3.48-2.875-0.759-1.168-1.106-2.661-1.042-4.48v0c0.078-2.205 0.681-4.055 1.807-5.55 1.127-1.488 2.647-2.588 4.56-3.3 1.913-0.713 4.056-1.027 6.428-0.943v0c1.559 0.055 3.006 0.27 4.34 0.644 1.341 0.374 2.584 0.872 3.729 1.493 1.152 0.628 2.2 1.365 3.144 2.213zM185.169-7.77l0.04 3.91-11.95 0.121 0.314 30.719-4.39 0.045-0.313-30.719-11.95 0.122-0.04-3.91zM211.951-5.203l-1.897 3.643c-0.406-0.437-0.944-0.854-1.615-1.253-0.664-0.392-1.409-0.741-2.236-1.046-0.827-0.305-1.725-0.544-2.693-0.717-0.968-0.173-1.972-0.237-3.011-0.192v0c-2.664 0.113-4.608 0.699-5.83 1.758-1.223 1.066-1.797 2.475-1.723 4.227v0c0.052 1.232 0.416 2.191 1.093 2.876 0.683 0.692 1.707 1.236 3.071 1.631 1.371 0.396 3.106 0.793 5.206 1.191v0c2.427 0.424 4.532 0.972 6.315 1.644 1.783 0.672 3.174 1.614 4.173 2.826 0.992 1.206 1.532 2.851 1.62 4.936v0c0.07 1.652-0.186 3.101-0.766 4.347-0.581 1.246-1.424 2.289-2.53 3.129-1.098 0.847-2.406 1.49-3.922 1.928-1.51 0.438-3.157 0.694-4.942 0.77v0c-1.752 0.074-3.475-0.04-5.169-0.342-1.688-0.302-3.293-0.778-4.815-1.427-1.522-0.656-2.959-1.493-4.31-2.51v0l1.942-3.786c0.543 0.531 1.242 1.045 2.097 1.543 0.849 0.505 1.809 0.961 2.88 1.369 1.078 0.408 2.239 0.726 3.484 0.954 1.25 0.221 2.525 0.303 3.824 0.248v0c2.464-0.104 4.361-0.632 5.688-1.582 1.328-0.95 1.955-2.288 1.882-4.013v0c-0.055-1.299-0.482-2.322-1.281-3.069-0.792-0.747-1.949-1.349-3.47-1.805-1.514-0.456-3.354-0.899-5.521-1.327v0c-2.363-0.487-4.355-1.047-5.976-1.679-1.621-0.625-2.852-1.491-3.693-2.596-0.848-1.105-1.31-2.567-1.387-4.385v0c-0.093-2.205 0.364-4.096 1.371-5.673 1.008-1.571 2.438-2.786 4.29-3.645 1.852-0.859 3.964-1.339 6.334-1.439v0c1.559-0.066 3.018 0.036 4.377 0.305 1.366 0.269 2.644 0.669 3.834 1.199 1.197 0.536 2.299 1.19 3.306 1.962zM225.197 24.956l-4.371 0.275-2.173-34.562 4.371-0.274zM257.392 22.183l-23.61 2.069-3.024-34.498 4.364-0.382 2.683 30.613 19.246-1.687zM258.955 21.944l9.818-36.113 3.682-0.457 18.296 32.625-4.644 0.577-5.318-9.558-14.419 1.789-2.771 10.561zM266.822 7.304l12.583-1.561-8.171-15.099zM312.553-16.742l-1.47 3.836c-0.453-0.388-1.035-0.741-1.747-1.061-0.704-0.314-1.484-0.576-2.34-0.785-0.856-0.209-1.775-0.344-2.757-0.406-0.982-0.061-1.986-0.011-3.013 0.152v0c-2.634 0.415-4.498 1.219-5.593 2.41-1.093 1.198-1.504 2.663-1.231 4.395v0c0.192 1.218 0.663 2.129 1.413 2.733 0.757 0.609 1.837 1.033 3.237 1.272 1.407 0.237 3.176 0.434 5.307 0.591v0c2.459 0.145 4.613 0.45 6.461 0.915 1.848 0.465 3.337 1.242 4.468 2.332 1.123 1.085 1.846 2.658 2.172 4.72v0c0.257 1.633 0.168 3.102-0.268 4.405-0.436 1.304-1.155 2.436-2.157 3.398-0.995 0.967-2.221 1.754-3.677 2.361-1.45 0.607-3.057 1.049-4.822 1.327v0c-1.732 0.273-3.457 0.356-5.174 0.249-1.711-0.108-3.36-0.398-4.946-0.871-1.587-0.479-3.11-1.146-4.568-2.003v0l1.498-3.982c0.6 0.466 1.353 0.897 2.259 1.294 0.901 0.405 1.907 0.749 3.018 1.033 1.118 0.283 2.307 0.466 3.569 0.551 1.267 0.077 2.543 0.014 3.828-0.188v0c2.437-0.384 4.26-1.124 5.471-2.219 1.211-1.095 1.682-2.496 1.413-4.202v0c-0.202-1.284-0.743-2.252-1.622-2.902-0.872-0.652-2.09-1.118-3.652-1.399-1.556-0.281-3.435-0.511-5.637-0.691v0c-2.403-0.215-4.446-0.544-6.128-0.987-1.682-0.437-3.003-1.156-3.965-2.159-0.968-1.002-1.593-2.401-1.877-4.199v0c-0.344-2.18-0.105-4.111 0.717-5.792 0.823-1.675 2.105-3.045 3.847-4.11 1.742-1.064 3.785-1.781 6.13-2.15v0c1.541-0.243 3.002-0.308 4.383-0.195 1.388 0.112 2.703 0.364 3.946 0.754 1.25 0.397 2.42 0.921 3.508 1.573z" opacity="1" transform="matrix(1,0,0,1,0,0)" fill="black" class="wordmark-text-0" id="SvgjsPath5450"></path></svg></g></svg></g></svg></g></svg></g><g transform="matrix(1,0,0,1,180.320250906129,0)"><svg viewBox="0 0 34.879498187741945 60.11773820018874" height="60.11773820018874" width="34.879498187741945"><g><svg xmlns="http://www.w3.org/2000/svg" xmlns:xlink="http://www.w3.org/1999/xlink" version="1.1" x="0" y="0" viewBox="21.679106830508616 1 56.85827385947762 98" enable-background="new 0 0 100 100" xml:space="preserve" height="60.11773820018874" width="34.879498187741945" class="icon-icon-0" data-fill-palette-color="accent" id="SvgjsSvg5449"><g fill="black"><path fill-rule="evenodd" clip-rule="evenodd" d="M30.545 28.822C29.38 36.039 30.875 43.672 37.045 47.863 30.758 19.81 45.756 8.664 59.646 1 43.466 24.046 76.542 24.644 78.423 51.13 80.028 73.71 64.507 91.317 46.639 99 46.845 76.175 24.089 73.067 21.801 54.397 20.905 47.094 25.062 33.766 30.545 28.822" fill="black"></path></g></svg></g></svg></g><g></g></svg></g><defs><mask></mask></defs></svg><rect width="395.5199999999999" height="123.8551759713988" fill="black" stroke="none" visibility="hidden"></rect></g></mask></svg><rect width="395.5199999999999" height="123.8551759713988" fill="black" stroke="none" visibility="hidden"></rect></g></mask><linearGradient x1="0" x2="1" y1="0.578" y2="0.595" id="46d8d67f-0e3c-4497-a2da-766c7fc9404f"><stop stop-color="#6ee2f5" offset="0"></stop><stop stop-color="#6454f0" offset="1"></stop></linearGradient><rect width="395.5199999999999" height="123.8551759713988" fill="url(#46d8d67f-0e3c-4497-a2da-766c7fc9404f)" mask="url(#573f948c-3fbb-4bae-87bd-ac6e3d035de0)" data-fill-palette-color="accent"></rect></svg><rect width="395.5199999999999" height="123.8551759713988" fill="none" stroke="none" visibility="hidden"></rect></g></svg></g></svg>